<?xml version="1.0" encoding="utf-8"?>
<!-- Generator: Adobe Illustrator 21.1.0, SVG Export Plug-In . SVG Version: 6.00 Build 0)  -->
<svg version="1.1" id="Layer_1" xmlns="http://www.w3.org/2000/svg" xmlns:xlink="http://www.w3.org/1999/xlink" x="0px" y="0px"
	 viewBox="0 0 266.5 322.7" style="enable-background:new 0 0 266.5 322.7;" xml:space="preserve">
<style type="text/css">
	.st0{fill:#C5D6D5;}
	.st1{fill:#4E5159;}
	.st2{fill:#EBF2EF;}
	.st3{fill:#FFFFFF;}
	.st4{fill:#373A40;}
	.st5{fill:#F7F9FF;}
	.st6{fill:#979CAD;}
	.st7{fill:#F7FFFC;}
	.st8{fill:#A6BDBB;}
</style>
<g id="XMLID_3813_">
	<g id="XMLID_5147_">
		<g id="XMLID_3861_">
			<g id="XMLID_75_">
				<path class="st0" d="M42.7,105.8c-3.3-2.1-6.3-6.2-7.6-9.6c-1.4-3.5-1.6-7.7,0.1-11c1.4-2.8,4.1-4.8,7-6c2.7-1,5.2-0.9,8-1.2
					c2.3-0.3,4.3,0.3,6.3,1.8l-0.3,0.4c-3.3,3.4-6.2,7.1-8.5,11.2c-2.4,4.4-3.4,9-4.8,13.8L42.7,105.8z M169.8,53.3l-0.1,0.3
					c3.9,1.6,6.6,6.6,7,10.8c0.4,4.2-1,8-3.3,11.5l-0.3,0.2c-6.4-8.1-15.3-16.3-24.7-18.8l0.1-0.2C154.8,52.6,161.9,50.6,169.8,53.3
					z M96.2,89.5h0.1c0.2-4,0.8-16.9,11.7-19.5c5.4-1.3,15.7,3,19.5,10.1l0,0c2.9,4.5,5.8,9.6,7.2,15.4c1.4,5.8,1.5,12.1-0.9,17.5
					c-1.8,4.2-5.2,7.8-9.3,9.8c-4.1,2-9,2.4-13.4,1c-6.9-2.2-11.7-8.6-13.9-15.5C95.2,101.8,96.1,96.2,96.2,89.5z M66.4,187.6
					l0.6-0.3c6.2-12.1,13.7-23.1,26.1-29.4c-1.9-0.5-3.8-0.5-5.7-0.9c2.8-0.6,9.1-4.9,14.7-6.8l0.1,0.1
					c14.1-5.4,27.3-12.3,42.4-14.8c25.8-4.4,65.6-1,78.7,26l0.1,0c-1.5-3.1-3.2-6.2-4.9-9.3c-1.6-2.9-3.2-5.8-4.9-9.1
					c-5.8-11.1-15.9-23.3-21.9-40.2l-0.7-2.8c1.1-0.3,2.2-0.6,3.3-0.8c-5.3-3-10.2-7.9-13.2-13.2l-0.3-0.1c0.5-1.1,1.1-2.1,1.6-3.1
					c1.8-3.4,3.4-6.7,4-11c0.9-6.2-0.2-15.4-4.6-19.9l-0.1,0.1c-0.7-1-1.5-1.8-2.7-2.5c1.5,0.2,3.5,0.3,5.2-0.8
					c-6.2-0.1-11.8-7.7-24.4-6.3c-11.6,1.3-15,8.7-24,12.2l-0.1,0.6c-9-1.8-18.3-1.9-27.3-0.2c0.6-1.1,1-1.5,1.6-2.7
					c0.1-0.1,0.1-0.3,0-0.4c-0.1-0.1-0.3-0.1-0.4,0c-0.9,0.5-1.8,1-2.7,1.5c0.2-1.3,0.4-2.7,0.6-4c-0.7,1.6-1.8,3.1-3.1,4.2
					l-0.2-0.2c0.9-3.7,0.2-8.4-2.5-11.3c-3.5-3.8-8-2.3-12.2-4l-0.3,0.3c3.7,3.3,5.7,9.1,3.7,13.7L92.6,52c-0.1-2.2-3-4.4-5.2-4.7
					l-0.1,0.7c2.1,2.5,2.8,6.4,2.6,8.9l-0.2,0c-1.5,0.4-3,0.3-4.5-0.1c0.9,1.1,2.3,2,3.8,2.2l0,0c-6.2,1.9-12.7,5.7-18.1,9.3
					l-0.1,0.1c-1.2-1-2.2-2.1-3.4-3.1c0,1.1,0,2.2,0.1,3.3l-0.3,0.3c-1.5-1.6-3.5-2.8-5.7-3.2c0.6,0.9,1.3,2.6,2,3.5l0,0.5
					c-7.3-2.5-16.3-2.5-23.5,0.3c-4.2,1.6-8.5,3.6-11.3,7.2c-2.9,3.6-5,8.9-5.4,13.5c-0.3,3.5,0,7.1,1.3,10.3
					c2.5,6.5,8.1,14.1,13.3,17.5c-1.1,2.3-2.8,4.1-5.4,4.4c1.7,0.6,2.9,0.8,4.7,0.7l0.3,0.3c-1.5,2.4-4.7,4.6-7.2,5.8
					c1.2,1,4.3,1.9,7,1.1l0.1,0.3c-7.5,13-13.1,27-18.6,41.7l0,0c-1.1,2.9-2.3,7.4-3.3,10c-2.9,7.4-5.4,14.3-7.8,21.9
					c-1.7,5.4-3.1,11-4,16.6c-0.9,5.5-1.9,11.4-2.1,16.9c0,1.3,0.3,2.5,0.3,3.8c0,1.8-0.9,3.6-1,5.5c1.3-3.2,3.1-6,5.6-8.3l0.3,0.3
					c-0.2,2-0.5,4-0.7,6.1c-0.1,0.6-0.1,1.2,0.2,1.6c0.3,0.5,1,0.7,1.6,0.9c7.6,2.2,10.6,11.1,15.9,17c2.8,3.2,6.4,5.5,10.3,7
					c3.7,1.5,7.8,2.3,11.8,2.5c0.5,0,1,0,1.5,0c3.1-0.2,6.8-1.2,10.6-2.6c5.5-2,11.1-4.6,15.5-6.2c0.5-0.2,1-0.4,1.5-0.5l0.2-0.4
					c7.1-14.9,8.7-32.3,4.5-48.2C76.8,206.8,70.8,198.3,66.4,187.6z M71.3,97c-2.9-6,2.2-12.9,8.8-11.6c6.1,1.3,7.6,10.6,3,14.3
					C79,102.9,73.6,101.7,71.3,97z M143.8,83.6c-5.9-0.5-9.8-9.1-5.4-13.5c4.7-4.8,12.9-1.9,13.7,4.8C152.8,80,149,84.1,143.8,83.6z
					"/>
				<path class="st1" d="M33.9,272.2l-0.2,0.6c1.1,3.5,3.8,6.6,7.3,8.1c2.8,1.3,6.7,1.5,9.7,0.4c0.7-0.3,1.3-0.6,1.8-1l0.2-0.4
					c-2.3-1.3-4.2-3.1-5.5-5.3c-0.5,0-1,0-1.5,0C41.7,274.5,37.6,273.7,33.9,272.2z"/>
				<path class="st2" d="M35.2,85.2c-1.7,3.4-1.5,7.5-0.1,11c1.3,3.4,4.4,7.5,7.6,9.6l0.3-0.5c1.3-4.8,2.3-9.4,4.8-13.8
					c2.3-4.1,5.3-7.8,8.5-11.2l0.3-0.4c-2-1.6-4-2.1-6.3-1.8c-2.8,0.3-5.3,0.2-8,1.2C39.3,80.4,36.7,82.4,35.2,85.2z"/>
				<path class="st0" d="M108.5,321.9c0.1,0,0.1,0,0.2,0c6.9,0.3,9.2-7.1,10.7-12.7c0.8-3,2.8-6.1,5-8.5l0.1-1
					c7,0.4,14.1,0.1,21.3-0.7l0.1,1c2.6,4.5,0.5,8.7,1.2,13.4c0.7,4.6,3.7,7.5,8.5,7.5c3.9,0,7.8-0.2,11.8-0.2
					c12.4,0.2,24.8,0.3,37.2,0.5c3.4,0.5,5.7,0.3,8-1c4.9-2.6,6-13.6,3-18c1,1.2,2.1,1.4,3.1,2.6c-1-1.1-0.9-2.3-1-3.7
					c-1.1-11.1-0.2-18.4,2.4-29.2c0.6-2.6,1.9-4.9,2.5-7.5c0.8-3.4,1.6-6.8,2.4-10.2c1.5-6.5,3.2-13,4.7-19.6
					c-9.1,33.1-45.6,50.9-74.4,55.7l0,0c-8.5,1.5-17.9,2-26.5,0.7c-9.5-1.4-20-3.6-29.1-7.6c-9.3-4.1-19.2-8.3-26-16.1l0,0
					c0.6,1.5,1.2,3,1.3,4.6c0.2,1.8-0.4,3.8-1.8,5c-1.5,1.2-3.5,1.4-5.4,1.2c-0.2,0-0.3,0-0.4-0.1l-0.1,0.8c-0.8,1.8-3,2.7-5,2.9
					c-3.2,0.4-6.5-0.3-9.3-1.9l-0.2,0.4c-0.6,0.4-1.2,0.7-1.8,1l0.3,0.9c0.2,6.1,2.2,15.1-1,31.6c-0.1,0.1-0.2,0.3-0.3,0.4
					c-1.2,1.5-3.2,3.2-1.1,5.1c1,0.9,2.4,1.2,3.8,1.4c3.5,0.5,7,0.5,10.5,0.6C78.4,321.7,92.4,321.1,108.5,321.9z"/>
				<path class="st1" d="M47.2,274.7c1.3,2.2,3.3,4,5.5,5.3c2.8,1.6,6.1,2.3,9.3,1.9c2-0.3,4.2-1.1,5-2.9l0.1-0.8
					c-3.6-0.5-7.3-2.3-9.3-5.8l-0.1-0.2C54,273.5,50.3,274.5,47.2,274.7z"/>
				<path class="st1" d="M57.8,272.1l0.1,0.2c2,3.5,5.7,5.3,9.3,5.8c0.1,0,0.3,0,0.4,0.1c1.9,0.2,4,0,5.4-1.2c1.4-1.2,1.9-3.2,1.8-5
					c-0.1-1.6-0.6-3.1-1.3-4.6c-0.1-0.2-0.2-0.4-0.3-0.6l0-0.9C68.8,267.5,63.2,270.1,57.8,272.1z"/>
				<path class="st2" d="M102.1,150.3l-0.1-0.1c-5.5,1.9-11.9,6.1-14.7,6.8c1.9,0.5,3.8,0.4,5.7,0.9c-12.5,6.3-19.9,17.4-26.1,29.4
					l-0.6,0.3c4.4,10.7,10.4,19.2,13,29.2c4.2,15.9,2.6,33.3-4.5,48.2l-0.2,0.4c-0.5,0.1-1,0.3-1.5,0.5l0,0.9
					c0.1,0.2,0.2,0.4,0.3,0.6l0,0c6.8,7.8,16.6,12,26,16.1c9.2,4,19.7,6.2,29.1,7.6c8.5,1.3,18,0.8,26.5-0.7l0,0
					c28.8-4.8,65.3-22.6,74.4-55.7c0,0,0-0.1,0-0.1c0.6-2.9,1.3-5.8,1.8-8.7l0.1,0c3.4-14.4,2.1-37-2.6-51
					c-1.7-5.1-3.6-9.4-5.6-13.5l-0.1,0c-13.1-27-52.9-30.4-78.7-26C129.4,138,116.2,144.9,102.1,150.3z"/>
				<path class="st3" d="M80.1,85.5C73.5,84.1,68.4,91,71.3,97c2.3,4.7,7.7,5.9,11.8,2.7C87.7,96.1,86.2,86.7,80.1,85.5z M75.3,92.7
					c-0.6-2.2,0.6-4.5,2.8-5.1c2.2-0.6,4.5,0.6,5.1,2.8c0.7,2.2-0.6,4.5-2.8,5.1C78.3,96.1,76,94.9,75.3,92.7z"/>
				<path class="st4" d="M78.1,87.6c-2.2,0.7-3.4,2.9-2.8,5.1c0.7,2.2,3,3.4,5.1,2.8c2.2-0.6,3.4-2.9,2.8-5.1
					C82.6,88.2,80.3,86.9,78.1,87.6z M76.2,91.3c-0.3-0.9,0.3-1.9,1.2-2.2c0.9-0.3,1.9,0.3,2.2,1.2c0.3,0.9-0.3,1.9-1.2,2.2
					C77.5,92.8,76.5,92.2,76.2,91.3z"/>
				<path class="st5" d="M77.4,89.1c-0.9,0.3-1.5,1.3-1.2,2.2c0.3,0.9,1.3,1.5,2.2,1.2c0.9-0.3,1.5-1.3,1.2-2.2
					C79.3,89.4,78.4,88.8,77.4,89.1z"/>
				<path class="st1" d="M127.5,80.1c-3.7-7.1-14.1-11.3-19.5-10.1c-10.9,2.6-11.5,15.4-11.7,19.5h-0.1c-0.1,6.8-1.1,12.3,1,18.8
					c2.2,6.9,7.1,13.3,13.9,15.5c4.4,1.4,9.3,1,13.4-1c4.1-2,7.4-5.6,9.3-9.8c2.4-5.4,2.3-11.8,0.9-17.5
					C133.4,89.7,130.4,84.6,127.5,80.1L127.5,80.1z"/>
				<path class="st3" d="M138.4,70.1c-4.4,4.4-0.5,13.1,5.4,13.5c5.2,0.4,9-3.7,8.3-8.8C151.3,68.2,143.2,65.3,138.4,70.1z
					 M141.7,75.3c-0.7-2.2,0.6-4.5,2.7-5.2c2.2-0.7,4.5,0.5,5.2,2.7s-0.6,4.5-2.7,5.2C144.7,78.7,142.4,77.5,141.7,75.3z"/>
				<path class="st4" d="M144.4,70.2c-2.2,0.7-3.4,3-2.7,5.2s3,3.4,5.2,2.7c2.2-0.7,3.4-3,2.7-5.2S146.6,69.5,144.4,70.2z
					 M142.6,73.9c-0.3-0.9,0.2-1.9,1.2-2.2c0.9-0.3,1.9,0.2,2.2,1.2c0.3,0.9-0.2,1.9-1.2,2.2C143.9,75.4,142.9,74.8,142.6,73.9z"/>
				<path class="st5" d="M143.8,71.7c-0.9,0.3-1.4,1.3-1.2,2.2c0.3,0.9,1.3,1.4,2.2,1.2c0.9-0.3,1.4-1.3,1.2-2.2
					C145.7,71.9,144.7,71.4,143.8,71.7z"/>
				<path class="st2" d="M148.5,57l-0.1,0.2c9.5,2.5,18.3,10.7,24.7,18.8l0.3-0.2c2.4-3.5,3.7-7.2,3.3-11.5c-0.4-4.2-3.1-9.2-7-10.8
					l0.1-0.3C161.9,50.6,154.8,52.6,148.5,57z"/>
				<path class="st0" d="M244.7,108.9l0.3,0.2c0,2.5,0.1,5.1,0.1,7.7c6.6-12.5,13.2-25.2,17.2-38.8c4-13.6,5.5-29.7,0.1-43.8
					l-0.3-0.1c-0.4,1.4-0.9,2.6-1.6,3.6c-1.5,2.4-4.1,4.2-6.9,4.3c-3.3,0.2-5.8-2.3-6.7-5.3l-0.1-0.6c-1.8,0.3-3.7,0.1-5.3-0.8
					l-0.5,0.1c1.5,2,2.5,4.2,2,6.8c-1.3,7.3-9.8,6.8-14.3,2.8c-4.7-4.1-8.2-9-8.1-15.6c0.1-5.4,2.8-10.7,7-13.9
					c2.6-0.9,5.6-3.6,7.8-5.9l-0.8-0.2c-6.7-0.6-14.5,3.4-18.9,8.5c-4.4,5-6.9,11.5-8.7,17.9c-1.8,6.4-3.1,13-5.4,19.3
					c-3.9,10.7-10.7,20.3-19.6,27.3c-0.5,1-1.1,2-1.6,3.1l0.3,0.1c3,5.3,7.9,10.1,13.2,13.2c-1.1,0.3-2.2,0.6-3.3,0.8l0.7,2.8
					c6,16.9,16.1,29.2,21.9,40.2c1.7,3.3,3.4,6.3,4.9,9.1l0.9-0.4C227.4,137,233.9,124.2,244.7,108.9z"/>
				<path class="st1" d="M220.7,29.6c-0.1,6.6,3.4,11.4,8.1,15.6c4.6,4,13.1,4.5,14.3-2.8c0.5-2.6-0.5-4.8-2-6.8
					c-1.8-2.4-4.4-4.5-6.1-6.8c-0.5-4.5,6.6-5,9.6-6.7c2.9-1.7,5.5-4.3,7.1-7.2c0.1-0.2,0.2-0.4,0.3-0.6c1.5-3.1,1.9-6.8,0.2-9.8
					c-1.7-3.2-6.1-4.9-9.2-3.1c-2.8,1.6-3.9,4.8-6,7c-0.4,0.5-0.9,0.9-1.4,1.5c-2.3,2.3-5.2,4.9-7.8,5.9
					C223.5,18.9,220.8,24.2,220.7,29.6z"/>
				<path class="st1" d="M256,20.1c-0.5-2.1-1.5-4-3.4-5.6l-0.6-0.3c-0.1,0.2-0.2,0.4-0.3,0.6c-1.6,2.9-4.2,5.5-7.1,7.2
					c-3,1.8-10,2.2-9.6,6.7c1.7,2.2,4.3,4.4,6.1,6.8l0.5-0.1c1.6,0.9,3.5,1.1,5.3,0.8c1.1-0.2,2.1-0.5,3-1.1
					c2.5-1.4,4.3-3.9,5.3-6.6C256.2,25.8,256.6,22.9,256,20.1z"/>
				<path class="st1" d="M246.9,36.2l0.1,0.6c0.8,3,3.4,5.4,6.7,5.3c2.8-0.1,5.3-2,6.9-4.3c0.7-1,1.2-2.3,1.6-3.6
					c1.6-5.6,0.5-13.2-6.1-14c0.6,2.7,0.2,5.7-0.9,8.4c-1,2.7-2.8,5.1-5.3,6.6C249,35.7,247.9,36,246.9,36.2z"/>
			</g>
			<g id="XMLID_78_">
			</g>
		</g>
	</g>
</g>
<g id="XMLID_3814_">
	<g id="XMLID_11730_">
		<g>
			<path class="st2" d="M137.1,56c-9.1-2.8-19.6-2.2-28.9-0.8c-1.4,0.2-0.8,2.5,0.6,2.2c9.5-1.7,18.6-0.8,28.1-0.2
				C137.7,57.3,137.7,56.2,137.1,56L137.1,56z"/>
		</g>
	</g>
	<g id="XMLID_11974_">
		<g>
			<path class="st2" d="M89.9,39.5c2.1,2,4.7,1.4,7.3,2c1.6,0.4,2.2-2.1,0.7-2.4c-1.3-0.3-2.3-0.2-3.5,0c-1.4,0.2-2.5,0.3-3.8-0.5
				C90,38.3,89.4,39.1,89.9,39.5L89.9,39.5z"/>
		</g>
	</g>
	<g id="XMLID_11727_">
		<g>
			<path class="st2" d="M89.9,59.5c-3.7,0.4-7.5,2.9-10.7,4.6c-2.7,1.5-5.9,3-8.2,5.1c-0.9,0.8,0.4,2.1,1.3,1.3
				c5-4.7,12.3-6.3,17.8-10.1C90.5,60.2,90.5,59.5,89.9,59.5L89.9,59.5z"/>
		</g>
	</g>
	<g id="XMLID_11726_">
		<g>
			<path class="st2" d="M72.4,69.6c-1-0.9-2-1.7-3-2.7c-0.7-0.7-1.8,0.4-1.1,1.1c1,0.9,2.1,1.7,3,2.6C72,71.3,73.1,70.3,72.4,69.6
				L72.4,69.6z"/>
		</g>
	</g>
	<g id="XMLID_11725_">
		<g>
			<path class="st2" d="M69.5,71.6c-1.7-1.5-3.3-4.1-5.6-4.7c-0.9-0.3-1.3,1-0.6,1.5c1,0.7,2,1.4,2.9,2.2c0.8,0.7,1.6,1.5,2.5,2
				C69.3,72.8,70,72,69.5,71.6L69.5,71.6z"/>
		</g>
	</g>
	<g id="XMLID_11724_">
		<g>
			<path class="st2" d="M63.9,70.5c-8.8-2.3-18.2-2.9-26.7,1c-7.6,3.5-11.4,9.6-13.4,17.4c-0.2,0.7,0.9,1,1.1,0.3
				c2.6-7.4,6.1-13.4,13.7-16.6c8-3.3,16.7-3.1,25-1.2C64.3,71.6,64.6,70.6,63.9,70.5L63.9,70.5z"/>
		</g>
	</g>
	<g id="XMLID_11722_">
		<g>
			<path class="st2" d="M137.1,55.6c7.7-1.6,12.5-9.1,20.3-11.1c5.5-1.4,11.2-0.2,16.1,2.5c3,1.6,5.2,2.4,8.6,2.9
				c1.3,0.2,1.4-2,0-2.1c-4.8-0.1-8.1-3.2-12.5-4.5c-3.5-1.1-7.5-1.4-11.2-0.7c-8.6,1.6-13.6,9.4-21.6,12.1
				C136.2,54.8,136.4,55.7,137.1,55.6L137.1,55.6z"/>
		</g>
	</g>
	<g id="XMLID_11721_">
		<g>
			<path class="st2" d="M101.5,62.2c0.7-1.8,1.5-3.6,2.9-5c1.3-1.3,3-1.8,4.4-3c0.5-0.4-0.1-1.1-0.6-1c-1.9,0.3-3.8,2-5,3.3
				c-1.3,1.6-2.2,3.4-2.8,5.4C100.2,62.6,101.3,62.9,101.5,62.2L101.5,62.2z"/>
		</g>
	</g>
	<g id="XMLID_11720_">
		<g>
			<path class="st2" d="M87.1,48.4c0.9,0.6,1.9,1.2,2.7,2c0.7,0.8,1,1.6,1.4,2.5c0.4,0.8,1.5,0.2,1.4-0.6c-0.4-2.4-3-3.8-4.9-4.9
				C87,47.1,86.5,48,87.1,48.4L87.1,48.4z"/>
		</g>
	</g>
	<g id="XMLID_11719_">
		<g>
			<path class="st2" d="M81.9,236.2c-0.2-10.4-1.5-20.8-5.9-30.3c-1.8-3.8-3.8-7.5-5.7-11.3c-2.6-5.5-4.2-11.1-6.3-16.8
				c-0.3-0.8-1.4-0.5-1.3,0.4c1.5,9.3,6.1,17.7,10.3,26c5.2,10.3,7.4,20.5,7.7,32C80.9,236.8,81.9,236.9,81.9,236.2L81.9,236.2z"/>
		</g>
	</g>
	<g id="XMLID_11718_">
		<g>
			<path class="st2" d="M60.1,160.3c-2.2,8.9,1.2,17.2,4.3,25.4c0.4,1.1,2.3,0.6,1.8-0.5c-3.2-8.4-5.3-15.6-4.8-24.7
				C61.4,159.7,60.2,159.6,60.1,160.3L60.1,160.3z"/>
		</g>
	</g>
	<g id="XMLID_11716_">
		<g>
			<path class="st2" d="M38.7,117.1c-0.4,1.3-1.3,2.4-2.3,3.4c-0.5,0.5-0.9,0.9-1.5,1.2c-0.5,0.3-1.1,0.4-1.6,0.8
				c-0.5,0.5-0.2,1.2,0.4,1.4c1.4,0.6,3.2-1.2,4-2.2c1-1.2,1.9-2.8,2.2-4.4C40,116.6,38.9,116.3,38.7,117.1L38.7,117.1z"/>
		</g>
	</g>
	<g id="XMLID_11715_">
		<g>
			<path class="st2" d="M37.1,123.5c-0.4,1.5-1.3,2.9-2.6,3.9c-0.6,0.5-1.2,0.8-1.9,1.1c-0.7,0.3-1.3,0.4-1.9,0.9
				c-0.4,0.4-0.3,1.2,0.4,1.4c1.6,0.3,3.7-1.2,4.8-2.3c1.4-1.3,2.1-3,2.2-4.9C38.2,123,37.2,122.9,37.1,123.5L37.1,123.5z"/>
		</g>
	</g>
	<g id="XMLID_3862_">
		<g>
			<path class="st2" d="M20.6,171.3c4-7.4,7.1-15.1,10.5-22.8c2.4-5.6,4-11.7,7.6-16.7c0.6-0.9-0.8-1.7-1.5-0.9
				c-8.1,11.7-12.3,26.6-18,39.6C18.7,171.4,20.1,172.3,20.6,171.3L20.6,171.3z"/>
		</g>
	</g>
	<g id="XMLID_11713_">
		<g>
			<path class="st2" d="M201.4,303.6c-4.8,0.3-9.4,1.2-14.1,2.3c-3.1,0.7-6.4,1.4-8.7,3.7c-0.7,0.7,0.2,1.9,1,1.3
				c6-4.2,14.8-5.2,21.9-6.3C202.2,304.6,202,303.6,201.4,303.6L201.4,303.6z"/>
		</g>
	</g>
	<g id="XMLID_11712_">
		<g>
			<path class="st2" d="M90.6,307.2c-1.7,0.2-3.4,0.4-5.1,0.3c-1.9-0.1-3.4-0.7-5.2-1.1c-0.8-0.2-1.3,0.7-0.8,1.3
				c2.4,2.8,8.1,1.4,11.2,0.6C91.3,308.1,91.2,307.1,90.6,307.2L90.6,307.2z"/>
		</g>
	</g>
	<g id="XMLID_11704_">
		<g>
			<path class="st6" d="M135,95.5c-4.7-11.1-12.1-27.6-27.3-25.1c-5.8,1-7.9,6.5-9.2,11.6c-2.1,7.9-2.8,15.9-2.7,24.1
				c0,0.9,1.5,0.9,1.5,0c-0.2-8.5-0.5-33.5,11.9-34.1c13.9-0.7,19.7,13.9,24.8,24.1C134.4,96.7,135.2,96.2,135,95.5L135,95.5z"/>
		</g>
	</g>
	<g id="XMLID_11703_">
		<g>
			<path class="st7" d="M231.4,183.6c-2.1-8.2-4.5-16.6-8.6-24.1c-2.5-4.7-6.3-7.9-10.6-11c-9.9-7-20.3-11.6-32.3-13.1
				c-7.2-0.9-14.6-1.9-21.9-1.7c-7.8,0.2-15.4,2-23,4c-7.1,1.9-13.6,4.3-20.4,7.1c-7.7,3.1-15.2,7.3-23,10c-2.1,0.7-1.2,4,0.9,3.3
				c13-4.3,25-11.7,38.3-15.3c7.8-2.1,15.8-4.5,23.9-5.1c6.6-0.5,13.1,0.3,19.7,0.8c5.6,0.4,11.4,0.6,16.7,2.4
				c5.7,1.9,11.1,4.9,16.2,8c5.1,3.2,10,6.6,13,11.9c4,7.2,6.7,15.3,9.1,23.2C229.8,185.4,231.7,184.9,231.4,183.6L231.4,183.6z"/>
		</g>
	</g>
	<g id="XMLID_11702_">
		<g>
			<path class="st7" d="M67.9,188.3c3.3-5.2,6.7-10.3,10.5-15c4.1-5.1,9.3-11.2,15.6-13.6c1.4-0.5,0.4-2.6-0.8-1.8
				c-11.4,7.8-19.4,18-26.3,29.9C66.6,188.3,67.5,188.9,67.9,188.3L67.9,188.3z"/>
		</g>
	</g>
	<g id="XMLID_11701_">
		<g>
			<path class="st7" d="M203.8,226.3c-14.6,5.8-28.8,11.8-44.3,15.2c-7.3,1.6-14.7,2.7-22.1,3.1c-7.2,0.4-14.3-0.3-21.4-0.4
				c-1.7,0-2.2,2.7-0.4,3.1c13.9,2.7,29.4,0.6,43.1-2.4c15.8-3.4,31.8-8.9,46-16.6C205.8,227.8,205,225.8,203.8,226.3L203.8,226.3z"
				/>
		</g>
	</g>
	<g id="XMLID_11700_">
		<g>
			<path class="st8" d="M179.7,50.9c9.5,9.8,4.8,24.5-1.3,34.8c-0.9,1.5,1.4,2.8,2.3,1.3c6.2-10.8,10.5-27.4-0.2-36.9
				C179.9,49.7,179.2,50.5,179.7,50.9L179.7,50.9z"/>
		</g>
	</g>
	<g id="XMLID_11698_">
		<g>
			<path class="st8" d="M23.6,89.6c-1.5,10.6,5.6,22.4,13.9,28.6c1.1,0.8,2.2-1.1,1.1-1.8c-3.8-2.5-5.9-5.9-8.5-9.6
				c-3.7-5.2-5.9-10.6-5.3-17C24.8,89.1,23.7,88.9,23.6,89.6L23.6,89.6z"/>
		</g>
	</g>
	<g id="XMLID_11693_">
		<g>
			<path class="st8" d="M86.9,277.4c-4.3-1.9-7.8-4.9-11.3-8c-0.5-0.4-1.2-0.1-1.2,0.5c0,1.9,0.6,4.8-0.7,6.3
				c-1.3,1.6-4.5,1.1-6.4,1.7c0.6,0.3,1.1,0.6,1.7,1c0,0.3,0,0.6,0,0.9c-0.7,0-1.3,0-2,0c0,0,0.1,0.1,0.1,0.1
				c-0.1-0.6-0.1-1.1-0.2-1.7c-3.1,4.4-8.7,5.4-13.2,2.5c-1.2-0.8-2.6,1-1.5,2c5.3,4.7,13.4,2.3,17.1-3.1c0.4-0.5,0.2-1.3-0.2-1.7
				c0,0-0.1-0.1-0.1-0.1c-0.5-0.6-1.4-0.5-2,0c-0.1,0.1-0.3,0.3-0.4,0.4c-0.5,0.5-0.5,1.1-0.2,1.7c0,0,0,0,0,0.1
				c0.2,0.5,1.1,0.8,1.6,0.6c2.8-1.1,5.7-0.3,7.7-3c1.9-2.6,0.1-4.9,0.1-7.7c-0.4,0.2-0.8,0.3-1.2,0.5c3.7,3.1,7.4,6.1,11.9,8
				C87,278.6,87.4,277.7,86.9,277.4L86.9,277.4z"/>
		</g>
	</g>
	<g id="XMLID_11692_">
		<g>
			<path class="st8" d="M189.8,283.8c-16.3,8.1-34.1,12.9-52.2,13.7c-16.6,0.8-31.8-2.4-47.5-7.4c-0.7-0.2-1.1,0.8-0.5,1.1
				c14.4,7.6,32.9,8.8,48.8,7.7c18.1-1.3,35.8-6.1,51.9-14.3C190.9,284.3,190.4,283.5,189.8,283.8L189.8,283.8z"/>
		</g>
	</g>
	<g id="XMLID_11691_">
		<g>
			<path class="st8" d="M122.5,299.9c-2.9,2.1-4.6,5.4-5.7,8.7c-0.7,2.1-1.1,4.4-1.9,6.5c-1.2,3.4-2.6,4.2-5.8,5.3
				c-0.6,0.2-0.6,1.2,0.2,1.2c3.8-0.1,5.6-1,7.1-4.6c1.1-2.5,1.6-5.2,2.4-7.8c1.1-3.2,2.8-5.6,4.5-8.4
				C123.6,300.2,123,299.5,122.5,299.9L122.5,299.9z"/>
		</g>
	</g>
	<g id="XMLID_11690_">
		<g>
			<path class="st8" d="M159,319.9c-3.1-0.4-6.6-1.4-8.4-4.2c-1.5-2.3-1.2-5.2-1.1-7.8c0.1-2.9,0.7-6.7-1.6-9
				c-0.8-0.8-2.5,0.3-1.7,1.3c3.2,4.2,0.4,10.5,2.6,15.1c1.8,3.9,6.3,5.2,10.2,5.6C159.7,321.1,159.6,320,159,319.9L159,319.9z"/>
		</g>
	</g>
	<g id="XMLID_11689_">
		<g>
			<path class="st8" d="M217.7,280.6c1.6-12.2,8.1-23,10.1-35.1c0.3-1.7-2.1-2.4-2.6-0.7c-3.1,11.7-7.9,23.6-8.6,35.8
				C216.6,281.3,217.7,281.3,217.7,280.6L217.7,280.6z"/>
		</g>
	</g>
	<g id="XMLID_11687_">
		<g>
			<path class="st8" d="M51.7,309.7c3.1-9.1,2.9-18.6,1.3-28c-0.2-1.4-2.4-0.8-2.1,0.6c1.8,9.3,1.7,17.9-0.4,27
				C50.3,310.2,51.5,310.5,51.7,309.7L51.7,309.7z"/>
		</g>
	</g>
	<g id="XMLID_11686_">
		<g>
			<path class="st8" d="M74.5,263.5c-7.9,2-15.3,5.9-23.2,7.9c-8.7,2.3-18.7-0.3-24.4-7.4c-2.2-2.7-4.9-5.2-6.8-8.2
				c-1.7-2.7-3.2-5.2-5.7-7.4c-1.1-1-2.3-2-3.6-2.7c-0.4-0.2-2.2-1-2.4-1.3c-1.1-1.5-0.4-5.2-0.3-7.1c0.1-0.7-0.9-1.3-1.6-0.9
				c-2,1.5-3.7,2.9-5.1,5c-0.7,1.1,1,2.1,1.7,1c1.2-1.9,2.6-2.9,4.4-4.2c-0.5-0.3-1-0.6-1.6-0.9c-0.2,1.9-0.6,4.5-0.4,6.4
				c0.1,0.5-0.1,1.2,0.3,1.7c0.3,0.4,0.9,0.6,1.3,1c1.8,1.5,4.3,2.4,6.2,4.2c3,3,4.6,7,7.4,10.2c2.3,2.5,4.5,5.3,7,7.5
				c14.2,12,32.4,2,47-3.8C75.4,264.2,75.2,263.3,74.5,263.5L74.5,263.5z"/>
		</g>
	</g>
	<g id="XMLID_11605_">
		<g>
			<path class="st8" d="M65,179.4c-0.2-2.7-0.7-5.2-1.2-7.8c-0.7-3.6-0.8-7-0.9-10.6c0-1.2-1.7-1.2-1.8,0
				c-0.5,6.4,1.9,12.4,2.8,18.6C64,180.1,65.1,180,65,179.4L65,179.4z"/>
		</g>
	</g>
	<g id="XMLID_11603_">
		<g>
			<path class="st8" d="M65.8,173.3c-1.5,4.3,0,8.6,0.1,13c0,1,1.5,1,1.6,0c0.3-4.4-1.5-8.3-0.5-12.7
				C67.1,172.9,66.1,172.6,65.8,173.3L65.8,173.3z"/>
		</g>
	</g>
	<g id="XMLID_11602_">
		<g>
			<path class="st2" d="M193.8,98.5c-5-3.3-9.6-6-12.9-11.1c-0.5-0.7-1.9-0.3-1.5,0.6c2.1,5.2,8.8,9.9,13.9,11.7
				C194,99.9,194.4,98.9,193.8,98.5L193.8,98.5z"/>
		</g>
	</g>
	<g id="XMLID_11562_">
		<g>
			<path class="st8" d="M191.2,100.6c3,9.2,8.2,17.7,12.9,26.1c4.5,8.1,8.7,16.7,14,24.3c0.9,1.3,3,0.2,2.2-1.3
				c-4.4-7.9-9.5-15.5-14-23.4c-4.9-8.6-9.2-17.5-14.1-26.1C191.9,99.6,191,100,191.2,100.6L191.2,100.6z"/>
		</g>
	</g>
	<g id="XMLID_11551_">
		<g>
			<path class="st2" d="M94,51.8c3.2-4.1,1.1-10-2.3-13.3c-0.6-0.6-1.8,0.2-1.3,1c2.5,3.7,4.6,7.2,2.7,11.7
				C92.9,51.7,93.5,52.4,94,51.8L94,51.8z"/>
		</g>
	</g>
	<g id="XMLID_3881_">
		<g>
			<path class="st2" d="M183.4,83.5c5.9-4.9,11.5-10,15.8-16.4c3.8-5.7,6-12.3,7.8-18.9c2-7.4,3.4-15.7,7.1-22.5
				c4.2-7.6,10.6-11.7,19.1-13c1.5-0.2,1.2-2.8-0.4-2.7c-14.5,1.2-22.5,13.7-26,26.9c-2.2,8.3-3.5,17.4-7.2,25.2
				c-4,8.4-10.2,14.5-17.2,20.5C181.9,83.1,182.8,84,183.4,83.5L183.4,83.5z"/>
		</g>
	</g>
	<g id="XMLID_3882_">
		<g>
			<path class="st8" d="M261.9,35.9c-1.2,1.7-2.3,3.6-4,4.8c-4.1,3-9.7,1.4-10.5-4.1c-0.1-0.4-0.5-0.7-0.9-0.7
				c-1.1,0.2-2.3,0.1-3.4,0c-0.8-0.1-1.6,0.8-0.9,1.5c2.2,2.1,1.4,5.4-0.2,7.4c-1.6,2.1-3.7,2.5-6.2,3.1c-0.9,0.2-0.7,1.8,0.2,1.7
				c3.3-0.4,7-1.4,8.5-4.7c1.3-2.7,1.2-6.6-1-8.8c-0.3,0.5-0.6,1-0.9,1.5c1.3,0.2,2.4,0,3.2,0.8c0.4,0.4,0.8,2.2,1.3,2.8
				c1.4,1.8,3.8,2.8,6.1,3c4.4,0.3,8.8-3.7,9.7-7.9C263,35.7,262.2,35.4,261.9,35.9L261.9,35.9z"/>
		</g>
	</g>
	<g id="XMLID_3884_">
		<g>
			<path class="st2" d="M190.2,102.7c2.9,9.7,7.3,18.9,12.3,27.7c4.8,8.5,9.6,17.3,15.5,25.1c0.9,1.3,2.9,0.2,2.2-1.3
				c-4.4-8.1-10.5-15.4-15.3-23.3c-5.5-9-10.3-18.5-13.6-28.6C191,101.7,190,102,190.2,102.7L190.2,102.7z"/>
		</g>
	</g>
	<g id="XMLID_3886_">
		<g>
			<path class="st6" d="M252.4,13.8c0.9-3.1,1.5-6.6-0.4-9.4c-1.9-2.9-5.2-4.2-8.4-2.8c-3.7,1.6-5.9,6-8.4,8.9
				c-3.1,3.5-7.9,4.6-10.9,8.3c-0.5,0.6,0.4,1.5,0.9,0.9c3.3-3.9,8.5-4.8,11.7-8.8c1.7-2,3.2-4.6,5.3-6.3c7.3-6,10.4,3.3,9.1,8.9
				C251,14.2,252.2,14.5,252.4,13.8L252.4,13.8z"/>
		</g>
	</g>
	<g id="XMLID_3888_">
		<g>
			<path class="st6" d="M250.1,34.9c5.7-4.5,7.3-14.1,2.9-20c-0.8-1.1-2.7,0-1.9,1.1c4.2,5.6,3.7,13.6-1.8,18.1
				C248.8,34.6,249.6,35.3,250.1,34.9L250.1,34.9z"/>
		</g>
	</g>
	<g id="XMLID_3977_">
		<g>
			<path class="st6" d="M261,37.5c3.4-5.6,2.2-15.7-4.9-18c-1.2-0.4-1.7,1.5-0.5,1.9c5.6,2,7,11,4.5,15.6
				C259.8,37.5,260.7,38,261,37.5L261,37.5z"/>
		</g>
	</g>
	<g id="XMLID_3978_">
		<g>
			<path class="st6" d="M234.7,26.1c-1.6,2-1.2,3.8,0.4,5.7c1.3,1.5,3.1,2.5,4.4,4c2.9,3.5,3,7.7-0.4,10.8c-0.6,0.5,0.2,1.4,0.8,1.1
				c2.9-1.6,4-4.9,3.3-8.1c-0.4-1.7-1.2-3.1-2.2-4.5c-1.7-2.1-7.8-5.3-5.5-8.5C235.9,26.3,235.1,25.7,234.7,26.1L234.7,26.1z"/>
		</g>
	</g>
	<g id="XMLID_3891_">
		<g>
			<path class="st8" d="M221.1,36.2c1.5,3.7,3,7.4,6.1,10.1c2.6,2.2,5.9,3.5,9.3,3.2c1-0.1,1-1.6,0-1.6c-7.2,0.3-11.7-6.5-14.5-12.1
				C221.8,35.3,220.9,35.7,221.1,36.2L221.1,36.2z"/>
		</g>
	</g>
	<g id="XMLID_3979_">
		<g>
			<path class="st8" d="M264.6,47.4c-0.2,11.5-1.9,22.8-5.5,33.7c-3.4,10.4-9.2,20.1-15,29.4c-1,1.6,1.5,3.1,2.6,1.5
				c12-19.2,18.8-42,18.9-64.6C265.7,46.8,264.6,46.8,264.6,47.4L264.6,47.4z"/>
		</g>
	</g>
	<g id="XMLID_3980_">
		<g>
			<path class="st8" d="M243.5,107.6c-9,13.5-18.8,26.6-27.1,40.5c-1,1.6,1.4,2.9,2.5,1.4c9.2-13.3,17.2-27.6,25.7-41.3
				C244.9,107.5,243.9,107,243.5,107.6L243.5,107.6z"/>
		</g>
	</g>
</g>
<g id="XMLID_3893_">
	<g id="XMLID_3899_">
		<g id="XMLID_3900_">
			<g id="XMLID_3903_">
				<g>
					<path class="st4" d="M37.3,118.2c-1,2-2.6,3.7-4.9,3.8c-0.9,0.1-1.1,1.3-0.2,1.6c1.4,0.5,3.9,1.6,5.4,0.7
						c0.5-0.4,0.6-1.2,0-1.5c-0.7-0.4-1.5-0.3-2.3-0.3c-0.9,0-1.8-0.2-2.6-0.4c0,0.5,0,1,0,1.6c2.7-0.5,4.5-2.5,5.6-4.9
						C38.4,118.1,37.6,117.6,37.3,118.2L37.3,118.2z"/>
				</g>
			</g>
			<g id="XMLID_3904_">
				<g>
					<path class="st4" d="M36.9,123.6c-1.7,2.4-4.5,4.1-7.1,5.4c-0.4,0.2-0.6,1-0.2,1.3c2.2,1.7,5.2,2,7.8,1.3
						c1-0.3,0.6-1.9-0.4-1.6c-2,0.5-4.5,0.4-6.2-0.9c-0.1,0.4-0.1,0.9-0.2,1.3c2.9-1.4,5.6-3.5,7.3-6.3
						C38.2,123.6,37.3,123.1,36.9,123.6L36.9,123.6z"/>
				</g>
			</g>
		</g>
		<g id="XMLID_3905_">
			<g id="XMLID_3906_">
				<g>
					<path class="st4" d="M49.9,131.9c-2.4-1.6-4.4-3.6-6.5-5.5c-0.5-0.5-1.6,0.2-1.1,0.8c1.8,2.3,4.5,4.2,7,5.7
						C50,133.3,50.5,132.3,49.9,131.9L49.9,131.9z"/>
				</g>
			</g>
			<g id="XMLID_3909_">
				<g>
					<path class="st4" d="M54.2,132.9c-1.8-1.5-3.6-3-5.5-4.5c-0.5-0.4-1.3,0.3-0.8,0.8c1.8,1.5,3.7,3,5.5,4.4
						C54,134,54.7,133.3,54.2,132.9L54.2,132.9z"/>
				</g>
			</g>
			<g id="XMLID_3910_">
				<g>
					<path class="st4" d="M59.7,134.3c-2-1.4-3.9-3-6-4.2c-0.6-0.3-1.3,0.5-0.7,0.9c2,1.5,4.1,2.8,6.2,4.1
						C59.7,135.6,60.2,134.7,59.7,134.3L59.7,134.3z"/>
				</g>
			</g>
			<g id="XMLID_3911_">
				<g>
					<path class="st4" d="M63.1,134.1c-1.2-0.6-2.1-1.5-3.1-2.4c-0.6-0.5-1.4,0.3-0.8,0.8c1.1,1,2.1,1.9,3.4,2.5
						C63.2,135.3,63.7,134.4,63.1,134.1L63.1,134.1z"/>
				</g>
			</g>
		</g>
		<g id="XMLID_3912_">
			<g id="XMLID_3915_">
				<g>
					<path class="st4" d="M137.6,55c-9.8-2.3-19.7-3-29.6-1c-1.1,0.2-0.6,1.9,0.5,1.7c9.7-1.4,19.3-1.7,28.9,0.3
						C138,56.1,138.3,55.2,137.6,55L137.6,55z"/>
				</g>
			</g>
			<g id="XMLID_3916_">
				<g>
					<path class="st4" d="M89.1,58.3c-6.5,1.9-13.4,5.1-18.7,9.4c-0.6,0.5,0.2,1.5,0.9,1.1c6.1-3.2,11.5-7.1,18.1-9.4
						C90.1,59.2,89.8,58.1,89.1,58.3L89.1,58.3z"/>
				</g>
			</g>
			<g id="XMLID_3917_">
				<g>
					<path class="st4" d="M108.5,55.4c0.7-0.9,2.2-2.5,1.9-3.7c0-0.3-0.3-0.5-0.5-0.5c-0.5-0.2-0.9,0-1.4,0.3
						c-0.8,0.4-1.5,0.9-2.3,1.3c0.3,0.3,0.7,0.5,1,0.8c0.2-1.3,0.5-2.6,0.7-4c0.1-0.8-1-1.5-1.4-0.6c-0.4,0.8-0.8,1.6-1.4,2.3
						c-0.5,0.7-1.2,1.3-1.7,2c-0.4,0.6,0.4,1.3,1,1c1.6-0.9,2.8-2.9,3.5-4.5c-0.5-0.2-1-0.4-1.4-0.6c-0.2,1.3-0.4,2.7-0.6,4
						c-0.1,0.6,0.4,1.1,1,0.8c0.3-0.2,2.3-1.5,2.6-1.3c-0.2-0.2-0.4-0.4-0.5-0.5c0,0.1-0.7,1.1-0.8,1.3c-0.3,0.5-0.5,0.9-0.7,1.4
						C107.2,55.4,108.1,55.9,108.5,55.4L108.5,55.4z"/>
				</g>
			</g>
			<g id="XMLID_3918_">
				<g>
					<path class="st4" d="M104.3,53.5c1-4.2,0.5-9.2-2.7-12.3c-3.4-3.4-8.8-2.7-13-4.3c-0.8-0.3-1.2,0.9-0.5,1.3
						c2.9,1.7,6.2,1.3,9.3,2.3c5.3,1.7,6.8,7.9,5.8,12.8C103.1,53.9,104.2,54.2,104.3,53.5L104.3,53.5z"/>
				</g>
			</g>
			<g id="XMLID_3984_">
				<g>
					<path class="st4" d="M88.4,38.4c2.9,3.2,5.1,9.2,3.6,13.4c-0.2,0.6,0.8,1,1,0.4c1.1-2.5,1.8-5,1-7.7c-0.8-3-2.5-5.1-4.9-6.9
						C88.6,37.2,87.9,37.9,88.4,38.4L88.4,38.4z"/>
				</g>
			</g>
			<g id="XMLID_3985_">
				<g>
					<path class="st4" d="M92.9,51.9c-0.1-2.9-3.4-5-6.1-5.4c-0.6-0.1-0.8,1-0.1,1.1c2.2,0.3,4.7,2.1,5,4.4
						C91.8,52.7,92.9,52.5,92.9,51.9L92.9,51.9z"/>
				</g>
			</g>
			<g id="XMLID_3986_">
				<g>
					<path class="st4" d="M90.1,56.9c0.3-3.4-0.4-7.7-2.9-10.2c-0.7-0.7-1.8,0.3-1.1,1.1c2.1,2.6,3.2,5.6,3,9
						C89,57.5,90,57.5,90.1,56.9L90.1,56.9z"/>
				</g>
			</g>
			<g id="XMLID_3987_">
				<g>
					<path class="st4" d="M88.8,58.3c-1.4-0.3-2.5-1.1-3.5-2.2c-0.2,0.3-0.4,0.6-0.5,0.9c1.6,0.4,3.2,0.6,4.8,0.3
						c0.9-0.1,0.5-1.6-0.4-1.4c-1.4,0.4-2.7,0.4-4.1,0c-0.6-0.2-0.9,0.5-0.5,0.9c1,1.2,2.5,2,4,2.3C89.2,59.4,89.4,58.5,88.8,58.3
						L88.8,58.3z"/>
				</g>
			</g>
			<g id="XMLID_3992_">
				<g id="XMLID_3993_">
					<g id="XMLID_3994_">
						<g>
							<path class="st4" d="M176.2,55.7c-9.5-5.6-19-5.5-28.2,0.6c-0.8,0.6,0,1.9,0.8,1.3c8.7-5.8,17.6-6.2,26.8-1.1
								C176.3,56.9,176.8,56.1,176.2,55.7L176.2,55.7z"/>
						</g>
					</g>
					<g id="XMLID_3995_">
						<g>
							<path class="st4" d="M169.5,53.9c8.4,4.3,7.9,14.6,3.2,21.4c-0.6,0.9,0.9,1.7,1.4,0.8c4.4-7.4,4.8-18.7-4.1-23.1
								C169.4,52.8,168.9,53.7,169.5,53.9L169.5,53.9z"/>
						</g>
					</g>
					<g id="XMLID_3996_">
						<g>
							<path class="st4" d="M174.2,76.6c-6.4-8.7-15.2-17-25.8-20c-0.8-0.2-1.1,1-0.3,1.2c10.6,3.2,18.3,11.2,25.3,19.5
								C173.8,77.7,174.6,77.1,174.2,76.6L174.2,76.6z"/>
						</g>
					</g>
				</g>
				<g id="XMLID_3999_">
					<g>
						<path class="st4" d="M180.2,87.8c5.4-10.5,11.9-26.2,1.9-36.4c-0.7-0.7-1.7,0.3-1.1,1.1c3.9,4.7,5.1,10.9,4.8,16.9
							c-0.3,6.7-3.8,12-6.6,17.9C179,87.8,179.9,88.4,180.2,87.8L180.2,87.8z"/>
					</g>
				</g>
				<g id="XMLID_4009_">
					<g>
						<path class="st4" d="M184,48.1c-3.9-0.3-7.2-2.8-10.7-4.3c-4.7-2-9.4-2.7-14.5-2.1c-8.9,1.1-16.2,7.4-23.7,11.9
							c-1,0.6-0.3,2.1,0.8,1.8c3.9-1,7.1-3.9,10.2-6.3c4.5-3.4,9.4-6,15.1-6.3c5.3-0.3,9.9,1.3,14.5,3.5c2.6,1.3,5.2,2.6,8.1,2.7
							C184.7,49.2,184.7,48.1,184,48.1L184,48.1z"/>
					</g>
				</g>
				<g id="XMLID_4010_">
					<g>
						<path class="st4" d="M183.7,48.1c-1.5,0.9-3.1,0.9-4.7,0.7c-0.8-0.1-1.1,0.7-0.5,1.2c1.5,1.2,2.4,2.8,3.7,4.1
							c0.6,0.6,1.5-0.2,1.2-0.9c-1-1.8-2.4-3.3-4.2-4.4c-0.2,0.4-0.3,0.8-0.5,1.2c2,0.3,3.9,0.2,5.7-0.9
							C184.9,48.7,184.4,47.7,183.7,48.1L183.7,48.1z"/>
					</g>
				</g>
			</g>
			<g id="XMLID_4012_">
				<g>
					<path class="st4" d="M71.3,68.1c-1.2-1.1-2.3-2.3-3.5-3.3c-0.5-0.4-1.3-0.1-1.3,0.5c0,0.6,0,1.2,0,1.8c0,0.6-0.1,1.2,0.1,1.7
						c0.2,0.7,1.2,0.7,1.4,0c0.3-1.1,0-2.4,0-3.5c-0.4,0.2-0.7,0.4-1.1,0.6c1.3,1,2.4,2.1,3.7,3C71.2,69.3,71.8,68.5,71.3,68.1
						L71.3,68.1z"/>
				</g>
			</g>
			<g id="XMLID_4013_">
				<g>
					<path class="st4" d="M67.7,68.6c-1.6-1.9-3.6-3.2-6-3.7c-0.6-0.1-1.3,0.5-0.9,1.1c0.8,1.1,1.2,2.4,2,3.5c0.6,0.8,2,0,1.4-0.8
						c-0.8-1.1-1.2-2.4-2-3.5c-0.3,0.4-0.6,0.8-0.9,1.1c2.2,0.4,4.1,1.4,5.7,3C67.4,69.9,68.1,69.2,67.7,68.6L67.7,68.6z"/>
				</g>
			</g>
			<g id="XMLID_4014_">
				<g>
					<path class="st4" d="M63.5,69.2c-13.4-4.4-32.1-1.3-38.6,12.6C18.8,95,25.3,111.3,37.4,119c0.7,0.5,1.3-0.6,0.6-1.1
						c-11.3-8.7-18.3-23.2-11.2-36.8c6.5-12.4,24.3-14.6,36.4-11C63.9,70.4,64.1,69.4,63.5,69.2L63.5,69.2z"/>
				</g>
			</g>
			<g id="XMLID_4015_">
				<g>
					<path class="st4" d="M102.9,55.8c-1.8,1.7-3.1,4.1-2.8,6.6c0.1,0.8,1.2,0.8,1.3,0c0.2-2.2,0.8-4.2,2.3-5.8
						C104.2,56.1,103.5,55.3,102.9,55.8L102.9,55.8z"/>
				</g>
			</g>
			<g id="XMLID_4021_">
				<g>
					<path class="st4" d="M96.6,58.3c0-1-0.2-2.1-1.1-2.7c-0.6-0.4-1.2,0.4-0.9,0.9c0.3,0.7,0.8,1.1,1,1.9
						C95.7,59.1,96.6,58.9,96.6,58.3L96.6,58.3z"/>
				</g>
			</g>
			<g id="XMLID_4022_">
				<g>
					<path class="st4" d="M99,61c-0.2-1.5,0.4-2.9,1.6-3.8c0.5-0.4,0-1.3-0.5-0.9c-1.6,1.2-2.4,3-2,5C98.1,61.9,99.1,61.6,99,61
						L99,61z"/>
				</g>
			</g>
			<g id="XMLID_4027_">
				<g id="XMLID_4033_">
					<g>
						<path class="st4" d="M55.9,80c-7.2,7.6-10.8,15.3-13.5,25.3c-0.2,0.8,1,1.2,1.3,0.3c2.6-9.8,6-17.3,13-24.9
							C57.1,80.2,56.4,79.5,55.9,80L55.9,80z"/>
					</g>
				</g>
				<g id="XMLID_4039_">
					<g>
						<path class="st4" d="M43.4,105.7c-6.2-4.5-11.8-13.8-6.8-21.1c3.9-5.8,13.8-7.4,19.7-4.1c0.6,0.3,1.4-0.5,0.8-1
							c-5.9-4.8-17.6-1.9-21.7,4.3c-5.3,7.9,0.5,18.3,7.6,22.8C43.4,106.9,43.9,106,43.4,105.7L43.4,105.7z"/>
					</g>
				</g>
			</g>
		</g>
		<g id="XMLID_4045_">
			<g id="XMLID_4046_">
				<g>
					<path class="st4" d="M180.2,92.7c-0.1,0.9-0.2,1.9-0.4,2.8c-0.2,0.8-0.7,1.6-1,2.4c-0.3,0.7,0.7,1,1.1,0.5
						c1.2-1.6,1.5-4,1.2-5.9C181,92,180.2,92.2,180.2,92.7L180.2,92.7z"/>
				</g>
			</g>
			<g id="XMLID_4047_">
				<g>
					<path class="st4" d="M176.7,96.9c0,1.8-0.8,3.1-1.7,4.7c-0.3,0.6,0.4,1.1,0.9,0.7c1.5-1.3,2-3.4,2-5.3
						C177.9,96.2,176.7,96.2,176.7,96.9L176.7,96.9z"/>
				</g>
			</g>
			<g id="XMLID_4048_">
				<g>
					<path class="st4" d="M173.6,100.1c-0.4,1.1-0.7,2.2-1.1,3.3c-0.2,0.6,0.8,0.9,1,0.3c0.3-1.1,0.7-2.2,1-3.3
						C174.7,99.8,173.8,99.5,173.6,100.1L173.6,100.1z"/>
				</g>
			</g>
		</g>
	</g>
	<g id="XMLID_4049_">
		<g id="XMLID_4050_">
			<g>
				<path class="st4" d="M143.8,84.1c5,0.3,9.3-3.2,9.1-8.5c-0.2-4.6-3.9-8.3-8.5-8.5c-4.4-0.2-8.5,3.2-8.5,7.7
					c0,4.5,3.3,8.9,7.8,9.5c0.9,0.1,1.1-1.2,0.2-1.3c-8.2-1-9-14.7,0.3-14.6c3.5,0.1,6.5,2.5,7.3,5.9c1.1,4.9-2.7,8.9-7.6,8.8
					C143.2,83.2,143.2,84.1,143.8,84.1z"/>
			</g>
		</g>
		<g id="XMLID_4051_">
			<g>
				<path class="st4" d="M82.8,99.3c-3.9,2.6-8.9,1.7-11-2.6c-1.9-3.9,0.1-8.9,4.1-10.3c7.7-2.7,12.2,8.1,6.6,12.9
					c-0.6,0.5,0.3,1.5,0.9,0.9c7.1-6.3-0.1-19.7-9.3-14.5c-4,2.3-5.6,7.5-3.6,11.7c2.5,5,8.3,6,12.6,2.8
					C83.8,99.8,83.3,99,82.8,99.3z"/>
			</g>
		</g>
		<g id="XMLID_4052_">
			
				<ellipse id="XMLID_4053_" transform="matrix(0.9553 -0.2956 0.2956 0.9553 -15.3957 46.3627)" class="st4" cx="145.7" cy="74.1" rx="4.1" ry="4.1"/>
			
				<ellipse id="XMLID_4054_" transform="matrix(0.9553 -0.2956 0.2956 0.9553 -15.2445 45.9289)" class="st5" cx="144.3" cy="73.4" rx="1.8" ry="1.8"/>
		</g>
		<g id="XMLID_4055_">
			
				<ellipse id="XMLID_4056_" transform="matrix(0.9589 -0.2837 0.2837 0.9589 -22.7145 26.2557)" class="st4" cx="79.3" cy="91.5" rx="4.1" ry="4.1"/>
			
				<ellipse id="XMLID_4057_" transform="matrix(0.9589 -0.2837 0.2837 0.9589 -22.5618 25.8425)" class="st5" cx="77.9" cy="90.8" rx="1.8" ry="1.8"/>
		</g>
		<g id="XMLID_4058_">
			<g id="XMLID_4059_">
				<g>
					<path class="st4" d="M127.1,80.4c4.4,7.1,8.1,14.7,7.8,23.2c-0.3,9-5.6,17.4-14.7,19.6c-9.1,2.2-16.8-3.1-20.8-11.1
						c-3.8-7.7-2.1-15.4-2.6-23.6c0-0.8-1.2-0.8-1.3,0c-0.8,9.8-0.9,19.7,5,28c4.6,6.5,12.2,10.5,20.2,8.8
						c8.7-1.8,14.6-9.7,15.6-18.2c1.2-10-3.1-19.1-8.4-27.2C127.7,79.3,126.8,79.8,127.1,80.4L127.1,80.4z"/>
				</g>
			</g>
			<g id="XMLID_4060_">
				<g>
					<path class="st4" d="M128.2,80.3c-3.9-7.5-14.5-13.8-22.8-10.1c-7.1,3.1-10.1,12.1-9.7,19.3c0,0.7,1.1,0.9,1.3,0.2
						c1-6,1.1-12.4,6.3-16.6c7.8-6.2,19.8,0.1,24,7.7C127.6,81.4,128.5,80.9,128.2,80.3L128.2,80.3z"/>
				</g>
			</g>
		</g>
		<g id="XMLID_4061_">
			<g>
				<path class="st4" d="M123.3,126.8c-11.1,2.9-22.4,1.6-32.1-4.7c-0.7-0.4-1.3,0.6-0.6,1.1c10.1,6.7,21.5,8.5,33,4.7
					C124.3,127.6,124,126.6,123.3,126.8L123.3,126.8z"/>
			</g>
		</g>
		<g id="XMLID_4062_">
			<g>
				<path class="st4" d="M91.7,120.4c-2,0.7-3.1,2.9-2.5,5c0.2,0.8,1.4,0.4,1.2-0.3c-0.5-1.4,0.2-3.1,1.6-3.7
					C92.6,121.1,92.3,120.1,91.7,120.4L91.7,120.4z"/>
			</g>
		</g>
	</g>
	<g id="XMLID_4063_">
		<g id="XMLID_4064_">
			<g>
				<path class="st4" d="M74.6,264.9c-6.5,2.1-12.7,5.2-19.2,7.3c-8.2,2.6-16.5,2.1-24.2-2c-7.2-3.9-10-10.5-14.8-16.6
					c-1.6-2.1-3.5-4-5.8-5.3c-1.4-0.8-3-0.8-3.6-2.5c-0.5-1.3,0.5-4.6,0.6-6.1c0.1-1.1-1.8-1.4-2-0.3c-0.3,2.2-1.7,6.4-0.4,8.5
					c0.4,0.7,1.1,0.8,1.8,1.2c2.5,1.3,4.3,1.9,6.4,3.9c6,6.1,8.6,13.8,16.4,18.2c6.3,3.6,14.3,5.3,21.5,3.7c8.3-1.8,15.7-6.2,23.7-9
					C75.5,265.7,75.2,264.7,74.6,264.9L74.6,264.9z"/>
			</g>
		</g>
		<g id="XMLID_4065_">
			<g>
				<path class="st4" d="M13.5,229.5c0.3,0.4,0.5,0.8,0.8,1.3c0.4,0.6,1.3,0,0.9-0.5c-0.3-0.4-0.6-0.8-0.8-1.2
					C14,228.4,13.1,229,13.5,229.5L13.5,229.5z"/>
			</g>
		</g>
		<g id="XMLID_4066_">
			<g>
				<path class="st4" d="M14.6,233.3c-0.5-0.7-1-1.5-1.5-2.2c-0.4-0.6-1.4,0-1,0.6c0.5,0.7,1.1,1.5,1.6,2.2
					C14.1,234.4,15,233.9,14.6,233.3L14.6,233.3z"/>
			</g>
		</g>
		<g id="XMLID_4067_">
			<g>
				<path class="st4" d="M13.5,237.1c-0.4-0.6-0.7-1.2-1-1.9c-0.2-0.6-0.3-1.3-0.5-2c-0.2-0.5-1.1-0.7-1.2,0
					c-0.3,1.6,0.7,3.3,1.8,4.5C13,238.2,13.8,237.6,13.5,237.1L13.5,237.1z"/>
			</g>
		</g>
		<g id="XMLID_4108_">
			<g>
				<path class="st4" d="M11.9,241.4c-1.3-2.6-1.9-5.3-2.6-8.2c-0.2-0.7-1.3-0.6-1.3,0.2c0.2,3,1.4,5.9,2.8,8.6
					C11.3,242.6,12.2,242.1,11.9,241.4L11.9,241.4z"/>
			</g>
		</g>
		<g id="XMLID_4110_">
			<g>
				<path class="st4" d="M72.7,266.9c2,4.7,2,11.2-5,10.5c-4.2-0.5-6.6-2.7-9.3-5.7c-0.6-0.7-1.5,0.2-1.2,0.9c2,4.7,9.1,7.3,13.9,6
					c5.8-1.6,4.6-8,2.7-12.2C73.5,265.9,72.4,266.3,72.7,266.9L72.7,266.9z"/>
			</g>
		</g>
		<g id="XMLID_4112_">
			<g>
				<path class="st4" d="M66.5,278.6c-2.3,3.5-7.9,2.9-11.2,1.6c-3.3-1.3-5.5-3.6-7.7-6.2c-0.6-0.7-1.5,0.2-1.1,0.9
					c2.9,6.5,16.7,12.2,21.1,4.3C67.9,278.5,66.9,277.9,66.5,278.6L66.5,278.6z"/>
			</g>
		</g>
		<g id="XMLID_4114_">
			<g>
				<path class="st4" d="M52.2,279.9c-6.9,3.9-15.2-0.1-17.8-7.2c-0.3-0.9-1.7-0.5-1.4,0.4c2.9,7.9,12.1,12.5,19.8,7.8
					C53.4,280.5,52.8,279.5,52.2,279.9L52.2,279.9z"/>
			</g>
		</g>
		<g id="XMLID_4116_">
			<g>
				<path class="st4" d="M75.5,265.4c8.3-17.5,9.4-37.8,2-55.8c-2.8-6.7-6.5-13-9.4-19.6c-4.3-9.6-6.4-19.6-6.3-30.1
					c0-0.7-1.1-0.7-1.2,0c-0.4,16.8,6.2,30.2,13.4,44.9c9.3,18.8,8.7,40.9,0.2,60C73.9,265.5,75.1,266.2,75.5,265.4L75.5,265.4z"/>
			</g>
		</g>
		<g id="XMLID_4118_">
			<g>
				<path class="st4" d="M66.5,185.7c-0.5-1.9-1.1-3.8-1.2-5.7c-0.1-2.4,0.6-4.8,1.1-7.1c0.2-0.8-1-1.1-1.2-0.3
					c-1.3,4.8-1.4,8.7,0.3,13.4C65.7,186.6,66.7,186.3,66.5,185.7L66.5,185.7z"/>
			</g>
		</g>
		<g id="XMLID_4120_">
			<g>
				<path class="st4" d="M6.1,238.7c-2.7,2.5-4.6,5.2-6.1,8.6c0.4,0.2,0.8,0.3,1.2,0.5c0.4-2.7,1-4.8,1-7.5
					c-0.1-3.8,0.2-7.4,0.8-11.1c1-7.2,2.4-14.4,4.5-21.4c3.5-11.7,8.4-23,12-34.7c0.3-0.9-1.1-1.5-1.5-0.6c-2,4.7-3.3,9.7-5.1,14.4
					c-2.4,6.4-4.7,12.9-6.7,19.5c-2,6.7-3.3,13.5-4.3,20.4c-1,6.9-0.9,13.8-1.9,20.6c-0.1,0.9,1,1.2,1.3,0.4
					c1.3-3.2,3.2-5.9,5.7-8.3C7.5,239,6.7,238.2,6.1,238.7L6.1,238.7z"/>
			</g>
		</g>
		<g id="XMLID_4122_">
			<g>
				<path class="st4" d="M36.8,130.9c-9.1,15.7-17,33.4-22.2,50.8c-0.2,0.8,1,1.3,1.3,0.6c3.5-8.1,6-16.6,9.4-24.8
					c3.6-8.9,7.7-17.6,12.4-26C38.1,130.8,37.2,130.3,36.8,130.9L36.8,130.9z"/>
			</g>
		</g>
	</g>
	<g id="XMLID_4124_">
		<g id="XMLID_4126_">
			<g>
				<path class="st4" d="M231.1,224.4c-2.9,15-6.1,30.6-11,45.1c-2,5.9-3.1,12.3-3.5,18.5c-0.3,5-1.3,12.7,1.4,17.2
					c0.4-0.3,0.8-0.6,1.1-0.9c-1.2-1.1-1.7-1.3-3.1-2.5c-0.6-0.5-1.6,0.1-1.1,0.9c2,3.3,1.9,7.7,0.9,11.4c-1.6,5.7-5.8,7.1-11.4,6.5
					c-1-0.1-1,1.4,0,1.5c5.4,0.6,10.1-0.5,12.2-5.9c1.7-4.3,1.8-10-0.5-14.1c-0.4,0.3-0.7,0.6-1.1,0.9c1.2,1.1,1.7,1.3,3.1,2.6
					c0.6,0.5,1.6-0.1,1.1-0.9c-1.8-3.1-1.4-8.3-1.4-11.8c0-2.6,0.1-5.1,0.4-7.7c0.8-6.8,2.8-13,4.6-19.6c3.8-13.2,6.7-27.1,9.2-40.7
					C232.2,224,231.2,223.7,231.1,224.4L231.1,224.4z"/>
			</g>
		</g>
		<g id="XMLID_4127_">
			<g id="XMLID_4129_">
				<g>
					<path class="st4" d="M180.4,305.6c-1.3,0.5-2.4,1.2-3.3,2.2c-0.5,0.6,0.3,1.4,0.8,0.8c0.8-0.8,1.7-1.5,2.8-1.9
						C181.4,306.5,181.1,305.3,180.4,305.6L180.4,305.6z"/>
				</g>
			</g>
			<g id="XMLID_4130_">
				<g>
					<path class="st4" d="M179.2,309.8c7.3-3.6,13.7-6.2,22.1-5.7c1.3,0.1,1.4-2.1,0-2.1c-8.1-0.1-15.9,2.2-22.6,6.9
						C178.1,309.3,178.6,310.1,179.2,309.8L179.2,309.8z"/>
				</g>
			</g>
			<g id="XMLID_4132_">
				<g>
					<path class="st4" d="M177.3,305.5c-1.1,0.4-2.7,1.7-2.6,3c0,0.3,0.2,0.6,0.5,0.6c0.3,0,0.6-0.1,0.7-0.4c0.1-1,0.9-1.7,1.8-2.1
						C178.3,306.3,177.9,305.2,177.3,305.5L177.3,305.5z"/>
				</g>
			</g>
			<g id="XMLID_4134_">
				<g>
					<path class="st4" d="M173.7,305.7c-0.8,0.6-1.6,1.5-1.8,2.4c-0.1,0.7,0.9,1,1,0.3c0.1-0.7,0.7-1.4,1.3-1.8
						C174.8,306.2,174.2,305.3,173.7,305.7L173.7,305.7z"/>
				</g>
			</g>
		</g>
		<g id="XMLID_4136_">
			<g id="XMLID_4139_">
				<g>
					<path class="st4" d="M89.4,303.9c-2.8-0.7-6.3-0.5-9.1,0.4c-0.7,0.2-0.4,1.3,0.3,1.1c2.7-0.5,5.7-1.1,8.5-0.5
						C89.8,305.1,90,304.1,89.4,303.9L89.4,303.9z"/>
				</g>
			</g>
			<g id="XMLID_4142_">
				<g>
					<path class="st4" d="M92.7,306.5c-2.9-0.8-5.9-0.1-8.9-0.3c-0.7,0-0.8,0.9-0.2,1.1c2.8,0.9,5.9-0.3,8.8,0.2
						C93.1,307.7,93.4,306.7,92.7,306.5L92.7,306.5z"/>
				</g>
			</g>
		</g>
		<g id="XMLID_4145_">
			<g>
				<path class="st4" d="M207.9,320.7c-13.5-0.7-27.1-0.7-40.6-0.8c-5.5,0-15.3,2.3-18.5-3.5c-2.8-5.1,0.2-11.2-2.5-16.6
					c-0.3-0.6-1.2-0.1-0.9,0.6c2.4,5.8-1.2,12.6,2.7,17.9c2.8,3.8,7.2,3.5,11.4,3.5c16.1-0.3,32.3,0.7,48.4,0.3
					C208.7,321.9,208.7,320.7,207.9,320.7L207.9,320.7z"/>
			</g>
		</g>
		<g id="XMLID_4148_">
			<g>
				<path class="st4" d="M124,300.4c-3.3,3.1-4.7,6.8-6,11c-1.6,5.1-3.9,9.8-9.9,9.7c-1,0-1,1.4,0,1.5c4.2,0.4,7.3-1.9,9.3-5.5
					c1-1.8,1.7-3.8,2.3-5.8c1.1-3.9,2.8-7,5.2-10.3C125.1,300.5,124.4,300,124,300.4L124,300.4z"/>
			</g>
		</g>
		<g id="XMLID_4155_">
			<g>
				<path class="st4" d="M109.9,321.4c-12.4-1-24.7-0.7-37.1-0.8c-5.9-0.1-12,0-17.9-0.5c-1.7-0.2-6.6-0.1-6-3.4
					c0.1-0.7,1.5-1.9,2-2.6c1.7-2.3,2.7-4.4,3.5-7.2c0.2-0.6-0.7-1-1-0.4c-1,1.8-1.9,3.6-3,5.2c-0.9,1.3-2.4,2.6-3,4
					c-0.5,1.1-0.8,1.8-0.4,3.1c1.6,4.6,11.8,3.5,15.1,3.6c16,0.4,32,0,48,0.4C110.7,322.6,110.7,321.4,109.9,321.4L109.9,321.4z"/>
			</g>
		</g>
		<g id="XMLID_4162_">
			<g>
				<path class="st4" d="M50.3,314.6c3.8-10.7,1.6-21.6,1.2-32.5c0-0.7-1.1-0.7-1.1,0c0.1,4.1,0.4,8.1,0.4,12.2
					c0.1,6.8-1.3,13.4-1.6,20.2C49.2,315.1,50.1,315.1,50.3,314.6L50.3,314.6z"/>
			</g>
		</g>
		<g id="XMLID_4169_">
			<g>
				<path class="st4" d="M191.9,283.3c-30.3,16.6-70.1,21.7-102.5,7.7c-0.9-0.4-1.7,0.9-0.8,1.3c33.4,14.5,72.6,10.1,103.8-8.2
					C193,283.9,192.5,283,191.9,283.3L191.9,283.3z"/>
			</g>
		</g>
	</g>
	<g id="XMLID_4170_">
		<g id="XMLID_4178_">
			<g>
				<path class="st4" d="M204.9,224.5c-14.2,6.4-28.4,12-43.7,15.4c-15.7,3.5-32.1,4.4-48.2,4.3c-0.6,0-0.6,0.9,0,1
					c16.4,1.3,32.6,0.5,48.7-3.4c15.1-3.7,29.6-9.8,43.6-16.4C205.9,225.1,205.4,224.3,204.9,224.5L204.9,224.5z"/>
			</g>
		</g>
		<g id="XMLID_4185_">
			<g>
				<path class="st4" d="M184,245.1c-10.1,3.3-20.4,5.3-30.8,7.3c-0.7,0.1-0.6,1.3,0.2,1.3c10.6-0.9,21-3.9,30.9-7.6
					C184.9,245.9,184.6,244.9,184,245.1L184,245.1z"/>
			</g>
		</g>
		<g id="XMLID_4186_">
			<g id="XMLID_4193_">
				<g>
					<path class="st4" d="M229.1,234.5c-5.9,20.6-22.3,35.5-41.2,44.6c-16.1,7.8-34.7,12.7-52.7,11.9c-0.7,0-0.7,1,0,1.1
						c18.5,1.5,38.1-4,54.4-12.4c18.5-9.5,34.5-24.5,40.3-45C230.1,234.2,229.3,233.9,229.1,234.5L229.1,234.5z"/>
				</g>
			</g>
			<g id="XMLID_4200_">
				<g>
					<path class="st4" d="M155,289.9c-15.1,2.3-29.7,1-44.4-3.2c-12.9-3.6-27.5-9.7-36.7-19.8c-0.4-0.5-1.1,0.2-0.7,0.7
						c9.3,10.3,24,16.4,37.1,20.1c14.9,4.2,29.6,5.6,44.9,3C155.8,290.8,155.6,289.9,155,289.9L155,289.9z"/>
				</g>
			</g>
		</g>
		<g id="XMLID_4207_">
			<g>
				<path class="st4" d="M67.4,187.6c6.4-11.9,13.8-22.6,26.2-28.9c1.1-0.5,0.1-2.2-1-1.6c-12,6.7-19.9,18-26,30
					C66.3,187.6,67.1,188.1,67.4,187.6L67.4,187.6z"/>
			</g>
		</g>
		<g id="XMLID_4216_">
			<g>
				<path class="st4" d="M224,162c-9.1-19.2-30.5-26.7-50.4-28.4c-10.3-0.9-20.8-0.5-31,1.5c-14.8,2.8-28.9,9.4-42.6,15.4
					c-0.6,0.3-0.2,1.2,0.4,1c13.3-4.2,25.5-11.1,39.1-14.4c10-2.4,20.6-3,30.9-2.5c20.5,1.1,43.2,8,52.7,27.8
					C223.4,163.1,224.3,162.6,224,162L224,162z"/>
			</g>
		</g>
		<g id="XMLID_4223_">
			<g>
				<path class="st4" d="M101.9,149.7c-5,1.8-9.6,5.3-14.7,6.6c-0.7,0.2-0.7,1.2,0,1.4c1.9,0.5,3.8,0.7,5.7,1c1,0.2,1.4-1.3,0.4-1.5
					c-1.9-0.5-3.8-0.5-5.7-0.9c0,0.5,0,0.9,0,1.4c5.1-1.5,9.6-5.1,14.6-7C102.8,150.4,102.5,149.5,101.9,149.7L101.9,149.7z"/>
			</g>
		</g>
		<g id="XMLID_4230_">
			<g>
				<path class="st4" d="M191,102.9c3.7,10.3,9.1,19.6,15,28.8c5.7,9,10.9,18.4,15.7,27.9c10.2,20,14.1,44,9.2,66.2
					c-0.2,0.7,1,1.1,1.1,0.3c4.5-20.2,1.9-42.8-6.6-61.6c-4.5-10-9.9-19.9-15.7-29.3c-6.6-10.6-13.3-20.9-17.7-32.7
					C191.8,102,190.8,102.3,191,102.9L191,102.9z"/>
			</g>
		</g>
		<g id="XMLID_4237_">
			<g>
				<path class="st4" d="M180.4,86.2c3.2,5.6,7.8,10.1,13.3,13.4c0-0.4,0.1-0.7,0.1-1.1c-1.3,0.3-2.5,0.7-3.8,1
					c-0.7,0.2-0.4,1.3,0.3,1.1c1.3-0.3,2.5-0.6,3.8-1c0.5-0.1,0.6-0.8,0.1-1.1c-5.3-3.2-9.8-7.6-13-12.9
					C181,85.1,180.1,85.6,180.4,86.2L180.4,86.2z"/>
			</g>
		</g>
	</g>
	<g id="XMLID_4238_">
		<g id="XMLID_4245_">
			<g>
				<path class="st4" d="M261.9,34.3c10,28.5-4.3,57.3-17.5,82.1c0.5,0.1,0.9,0.3,1.4,0.4c0.1-2.6,0.2-5.1,0-7.7
					c-0.1-1.1-1.7-1.1-1.7,0c-0.1,2.6,0,5.1,0.2,7.7c0,0.7,1,1.1,1.4,0.4c13-25.1,27.9-54.4,17.1-83.1
					C262.6,33.5,261.8,33.7,261.9,34.3L261.9,34.3z"/>
			</g>
		</g>
		<g id="XMLID_4252_">
			<g>
				<path class="st4" d="M234.8,9.2C219.6,8.5,210.5,22,206.5,35c-2.7,8.9-4.1,18.3-8.3,26.7c-3.9,7.9-9.8,15-16.5,20.6
					c-0.6,0.5,0.3,1.4,0.9,0.9c11.5-9.2,18.7-21.3,22.5-35.4c2.2-8,3.4-16.6,7.5-23.9c4.5-8,12.6-14.1,22.1-13.8
					C235.4,10.1,235.4,9.2,234.8,9.2L234.8,9.2z"/>
			</g>
		</g>
		<g id="XMLID_4260_">
			<g>
				<path class="st4" d="M234.8,29.1c2.8,3.5,8,7.1,8,12c0,7.9-9.1,7.3-13.5,3.7c-9.4-7.6-10.6-20.5-1.1-28.7
					c0.5-0.4-0.2-1.1-0.7-0.7c-10.8,8.7-8.8,27.7,5,32.6c4.1,1.5,9,0.7,10.8-3.7c2.7-6.7-4.1-11.3-7.8-15.8
					C235.1,28,234.4,28.6,234.8,29.1L234.8,29.1z"/>
			</g>
		</g>
		<g id="XMLID_4268_">
			<g>
				<path class="st4" d="M227.9,16.1c4.1-1.7,7.8-4.8,10.5-8.2c2.2-2.7,3.2-5.7,7-6.1c7.1-0.7,8.5,7.6,5.8,12.8
					c-2.8,5.3-7.4,6.9-12.4,9.1c-2.5,1.1-4.3,2.4-4.3,5.2c0,0.9,1.3,0.9,1.4,0c0.1-4.1,5.8-4.5,8.5-5.8c2.5-1.2,4.7-3.2,6.3-5.3
					c3-3.9,4.9-9.6,1.9-14c-2.1-3.1-6.3-4.7-9.8-2.9c-2.1,1.1-3.2,3.3-4.6,5.2c-2.7,3.6-6.5,7.4-10.5,9.3
					C227.1,15.5,227.4,16.3,227.9,16.1L227.9,16.1z"/>
			</g>
		</g>
		<g id="XMLID_4275_">
			<g>
				<path class="st4" d="M252.3,14.9c7.6,7.3,0.8,24.7-10.6,20c-0.5-0.2-0.9,0.7-0.4,0.9c12.3,5.8,20.1-13.7,11.6-21.6
					C252.6,13.8,251.9,14.5,252.3,14.9L252.3,14.9z"/>
			</g>
		</g>
		<g id="XMLID_4282_">
			<g>
				<path class="st4" d="M255.7,20.6c5.7,0.9,7.1,6.5,6.3,11.5c-0.3,1.9-0.9,3.8-1.9,5.4c-3.3,5-10.1,5.4-12.4-0.8
					c-0.3-0.7-1.4-0.4-1.1,0.3c3.1,8.9,13.2,5.9,15.9-1.6c2.2-6.1,1.1-14.8-6.5-15.7C255.3,19.6,255.2,20.5,255.7,20.6L255.7,20.6z"
					/>
			</g>
		</g>
		<g id="XMLID_4289_">
			<g>
				<path class="st4" d="M244.4,108.5c-10.8,12.4-18,28.5-25.9,42.8c-0.5,1,1,1.9,1.5,0.9c3.9-7.1,7.7-14.2,11.7-21.3
					c4.2-7.4,9.3-14.4,13.5-21.8C245.5,108.6,244.8,108,244.4,108.5L244.4,108.5z"/>
			</g>
		</g>
	</g>
</g>
</svg>
