<svg id="Layer_1" xmlns="http://www.w3.org/2000/svg" xmlns:xlink="http://www.w3.org/1999/xlink" viewBox="0 0 1367.8 350.3"><style>.st0{fill:#FFFFFF;} .st1{opacity:0.5;clip-path:url(#XMLID_2_);fill:#B0B8C9;} .st2{fill:#B0B8C9;} .st3{opacity:0.5;fill:#DEE4F3;} .st4{opacity:0.5;clip-path:url(#XMLID_3_);fill:#B0B8C9;} .st5{fill:none;stroke:#B0B8C9;stroke-width:2;stroke-miterlimit:10;}</style><path class="st0" d="M1273.8 279.8H95V1.8h1116.7l62.1 48.5z"/><defs><path id="XMLID_4_" d="M95 86.6s-81.4 86.3-95 95.7c22.3 30.8 95 101.9 95 101.9V86.6z"/></defs><use xlink:href="#XMLID_4_" overflow="visible" fill="#DEE4F3"/><clipPath id="XMLID_2_"><use xlink:href="#XMLID_4_" overflow="visible"/></clipPath><path class="st1" d="M95 61L79.5 283.9 100 297z"/><path class="st2" d="M93.6 1.2c-.5 9.3-1.1 18.5-1.1 27.9 0 9 0 17.9.1 26.9.3 18.6.4 37.2.4 55.7 0 36.5.4 73 .6 109.5.1 20.9.6 41.8.9 62.7 0 .1.2.1.2 0 .4-36.8 1.1-73.6 1.3-110.5.2-36.5-.2-73 .5-109.5.2-10.3.3-20.6.3-30.9V17.1c0-5.4-.8-10.6-1.1-15.9-.1-1.3-2-1.3-2.1 0z"/><path class="st2" d="M.6 186.2C9.1 198.5 20 209.5 30 220.5c10.3 11.3 21.3 21.9 32 32.7 21.7 21.9 44.4 42.8 67.8 63 .1.1.2-.1.1-.1-22.7-20.4-44.6-41.7-65.9-63.5-10.5-10.7-20.3-22-30.4-33.1-10.5-11.4-20.1-23.9-31.3-34.6-.8-.9-2.4.3-1.7 1.3z"/><path class="st3" d="M1214 55.5l59.8 14.2 1.1-18.9-3.4-.4z"/><path class="st2" d="M2.2 183.9c17.7-14.4 33.9-31.3 49.9-47.5 15.2-15.4 31.7-31.2 43.3-49.5.3-.5-.4-1-.8-.6-7.8 7.6-14.8 16.1-22.1 24.2-7.6 8.3-15.4 16.4-23.3 24.3-15.9 16-33.4 30.7-48.8 47.2-1.2 1.3.6 2.9 1.8 1.9z"/><defs><path id="XMLID_5_" d="M1273.8 86.6s78.9 90.7 92.5 100.1c-13.8 15.9-92.5 97.5-92.5 97.5V86.6z"/></defs><use xlink:href="#XMLID_5_" overflow="visible" fill="#DEE4F3"/><clipPath id="XMLID_3_"><use xlink:href="#XMLID_5_" overflow="visible"/></clipPath><path class="st4" d="M1273.8 61l15.6 222.9-20.6 13.1z"/><path class="st2" d="M1273.1 51.3c-.3 4.3-1.1 8.4-1.1 12.6v13.9c0 7.8.1 15.6.2 23.3.3 14.6.3 29.1.3 43.7 0 27.6.4 55.1.6 82.7.1 18.8.6 37.6.9 56.4 0 .1.2.1.2 0 .5-31.2 1.1-62.3 1.3-93.5.2-27.6-.3-55.1.4-82.7.2-8.8.4-17.5.4-26.3V66.8c0-5.3-.7-10.2-1.1-15.5-.1-1.4-2-1.4-2.1 0z"/><path class="st2" d="M1365.7 185.5c-10.9 10.4-20.4 22.7-30.6 33.8-10.2 11.2-20.1 22.7-30.7 33.5-21.2 21.7-43 42.9-65.6 63.2-.1.1 0 .2.1.1 23.3-20 45.9-40.8 67.4-62.7 10.7-10.8 21.5-21.3 31.8-32.5 10-11 20.9-21.9 29.3-34.2.8-.9-.8-2.1-1.7-1.2z"/><path class="st2" d="M1367.4 185.4c-7.7-8.3-16.3-15.9-24.3-24-8.1-8.2-16.2-16.5-24-24.9-7.6-8.1-15-16.4-22.3-24.8-7.4-8.5-14.5-17.5-22.6-25.4-.4-.4-1.1.1-.8.6 11.8 18.6 27.9 35 42.8 51.2 15.6 16.9 31.5 34.6 49.3 49.2 1.3.9 3-.7 1.9-1.9z"/><path class="st5" d="M94.7 1.2H1210"/><path class="st2" d="M1209.2 1.9c10 8.8 20.9 16.8 31.5 24.9 10.9 8.3 21.9 17.7 33.8 24.6.7.4 1.4-.5.8-1.1-9.3-9.3-20.7-17.2-31.3-25.3-11-8.4-21.9-17.2-33.4-24.8-1.1-.7-2.3.9-1.4 1.7z"/><path class="st2" d="M1209.7 1.7c-.7 4-.1 8.1.2 12.1.3 5 .5 9.9.8 14.9.4 8.7-.1 18.7 2.5 27 .2.5 1 .6 1.1 0 1.3-8.6-.4-18.3-1-27-.3-4.6-.6-9.3-.9-13.9-.3-4.3-.2-8.9-1.6-13.1-.2-.5-1-.6-1.1 0z"/><path class="st2" d="M1214 56.5c10.2.6 21-1.3 31.1-2.3 5.2-.5 10.4-.9 15.6-1.5 4.5-.5 9.5-.5 13.7-2.2.3-.1.4-.6 0-.7-4.4-1-9.3-.1-13.7.2-5.5.4-11 .9-16.5 1.4-9.9.8-20.7.9-30.4 3.2-1.2.2-.9 1.8.2 1.9zM1360.5 193.5c-1.4 1.6 5.5 156.8 5.5 156.8l1.2-164.6-6.7 7.8zM6.7 190.2C8.1 191.8 0 347 0 347V182.3l6.7 7.9zM1365.4 185.4c-8.7-3.1-19.5-1.5-28.6-1.2-10.1.4-20.2 1.1-30.3 1.9-.2 0-.2.3 0 .3 10.1.8 20.1 1.6 30.3 1.9 9 .3 19.9 1.9 28.6-1.2.9-.2.9-1.4 0-1.7zM1342.5 229.4c-14.4 13.1-28.8 26.7-41.7 41.3-.4.5.2 1.1.7.7 14.8-12.7 28.6-26.9 41.9-41.1.5-.6-.4-1.5-.9-.9z"/><g><path class="st2" d="M1335.5 247c-1.3.9-2.3 2-3.4 3.2-.9 1-2.3 2.3-2.2 3.8 0 .5.5 1.1 1.1 1.1 1.5-.2 2.4-1.5 3.3-2.6 1-1.3 2-2.4 2.6-3.9.4-1-.4-2.3-1.4-1.6z"/></g><g><path class="st2" d="M1339.7 258.2c.3-.2.6-.4.9-.7.6-.6.6-1.7 0-2.2-.6-.6-1.6-.6-2.2 0-.2.3-.5.6-.7.9-.8 1.1.9 2.8 2 2z"/></g><g><path class="st2" d="M46.7 250.1c10.9 15.6 24.8 29.5 38.1 43 .6.6 1.5-.3 1-1-12-14.6-24.5-29.9-38.8-42.2-.1-.2-.4 0-.3.2z"/></g><g><path class="st2" d="M15.3 183.2c13.2-11.7 25.9-24.1 38.1-36.9.5-.5-.3-1.3-.8-.8-13 12-25.6 24.4-37.5 37.5-.2.2.1.4.2.2z"/></g><g><path class="st2" d="M30.4 179.4c5.4-3.6 10.3-8.7 14.3-13.8.6-.8-.3-1.7-1.1-1.1-5.1 4-10.2 8.9-13.8 14.4-.2.3.3.7.6.5z"/></g><g><path class="st2" d="M41 187.3c8.9.7 18 .1 27-.1 8.4-.2 16.9-.2 25.2-1.4.8-.1.5-1.3-.2-1.4-8.6-.8-17.4-.3-26-.1-8.7.2-17.4.2-26 1.3-1.1.2-1.1 1.6 0 1.7z"/></g></svg>